<svg width="44" height="44" viewBox="0 0 44 44" fill="none" xmlns="http://www.w3.org/2000/svg">
<g clip-path="url(#clip0_5_183)">
<path d="M43.1236 11.34C42.8749 10.4039 42.3846 9.5496 41.7019 8.86254C41.0193 8.17547 40.1681 7.67975 39.2336 7.425C35.7936 6.5 22.0436 6.5 22.0436 6.5C22.0436 6.5 8.29364 6.5 4.85364 7.425C3.91918 7.67975 3.06802 8.17547 2.38533 8.86254C1.70265 9.5496 1.2124 10.4039 0.96364 11.34C0.0436402 14.795 0.0436401 22 0.0436401 22C0.0436401 22 0.0436402 29.205 0.96364 32.66C1.2124 33.5961 1.70265 34.4504 2.38533 35.1375C3.06802 35.8245 3.91918 36.3202 4.85364 36.575C8.29364 37.5 22.0436 37.5 22.0436 37.5C22.0436 37.5 35.7936 37.5 39.2336 36.575C40.1681 36.3202 41.0193 35.8245 41.7019 35.1375C42.3846 34.4504 42.8749 33.5961 43.1236 32.66C44.0436 29.205 44.0436 22 44.0436 22C44.0436 22 44.0436 14.795 43.1236 11.34Z" fill="#0DACE8"/>
<path d="M17.5437 28.5425V15.4576L29.0437 22L17.5437 28.5425Z" fill="#FEFEFE"/>
</g>
<defs>
<clipPath id="clip0_5_183">
<rect width="44" height="44" fill="white"/>
</clipPath>
</defs>
</svg>
